<svg width="23" height="21" viewBox="0 0 23 21" fill="none" xmlns="http://www.w3.org/2000/svg">
<g clip-path="url(#clip0_51_4)">
<path d="M14.1961 13.2416C14.0958 13.2263 13.9936 13.2659 13.9246 13.3406C13.8549 13.4148 13.8249 13.5183 13.8441 13.6186C14.0204 14.5449 14.6139 15.8163 16.4361 16.6079C16.652 16.7012 16.9855 16.774 17.4084 16.8654C18.9916 17.2078 21.6392 17.7816 22.2896 20.2081C22.3279 20.3505 22.4569 20.4444 22.5981 20.4444C22.6256 20.4444 22.6531 20.4406 22.6812 20.4336C22.8518 20.3876 22.9527 20.2125 22.9074 20.0419C22.1554 17.2391 19.1558 16.5894 17.5439 16.2406C17.1708 16.1594 16.8481 16.0898 16.6903 16.0208C15.5953 15.5454 14.888 14.8401 14.5814 13.9214C17.6238 14.1476 19.0012 12.9356 19.0619 12.8806C19.1373 12.8123 19.1763 12.7107 19.1648 12.6091C19.1533 12.5075 19.0945 12.4174 19.0057 12.3663C17.25 11.3633 17.25 7.89731 17.25 6.59206C17.25 2.94209 14.7916 0.0485595 11.6399 0.0031984C11.631 0.00255952 11.5626 0.00128174 11.5498 0.00128174C11.5498 0.00128174 11.5498 0.00128174 11.5492 0.00128174C8.35156 0.0191706 5.75 2.91589 5.75 6.45917C5.75 7.76442 5.75 11.231 3.99433 12.2334C3.9017 12.2865 3.84228 12.3817 3.83397 12.4877C3.82631 12.5938 3.87231 12.6973 3.956 12.7631C4.04417 12.8314 5.99278 14.3226 8.39053 13.8696C8.06981 14.75 7.37214 15.4273 6.30903 15.8892C6.15506 15.9563 5.84839 16.0297 5.49317 16.1141C3.87039 16.4999 0.849084 17.2187 0.0926396 20.0413C0.0472785 20.2125 0.148223 20.3869 0.318806 20.4329C0.491945 20.4758 0.664445 20.3767 0.710445 20.2068C1.36786 17.7509 4.04353 17.1152 5.64139 16.7344C6.04197 16.6392 6.35822 16.5638 6.56395 16.475C8.38606 15.6834 8.97895 14.4121 9.15592 13.4857C9.177 13.3751 9.13867 13.2614 9.05433 13.1873C8.97064 13.1126 8.855 13.087 8.74639 13.1209C7.01692 13.6652 5.41906 12.9164 4.72075 12.5011C6.38889 11.1045 6.38889 7.89028 6.38889 6.45917C6.38889 3.26664 8.7055 0.656143 11.5767 0.638893C11.5799 0.638893 11.6418 0.642726 11.6444 0.642726C14.4759 0.682976 16.6111 3.24045 16.6111 6.59206C16.6111 8.02381 16.6111 11.2451 18.2863 12.6417C17.7094 12.9714 16.3939 13.5048 14.1961 13.2416V13.2416Z" fill="#B7B7B7"/>
</g>
<defs>
<clipPath id="clip0_51_4">
<rect width="23" height="20.4444" fill="white"/>
</clipPath>
</defs>
</svg>
