<svg width="23" height="21" viewBox="0 0 23 21" fill="none" xmlns="http://www.w3.org/2000/svg">
<g clip-path="url(#clip0_50_2)">
<path d="M0.319417 20.4336C0.490639 20.4764 0.665694 20.3774 0.710417 20.2074C1.36847 17.7522 4.04286 17.1158 5.64136 16.7351C6.04194 16.6399 6.35819 16.5645 6.56392 16.4757C8.38475 15.6854 8.97828 14.414 9.15589 13.4863C9.17761 13.3745 9.13736 13.2595 9.05047 13.1841C8.10236 12.3657 7.30247 11.1371 6.79775 9.72389C6.78369 9.68364 6.76133 9.64659 6.73194 9.61464C6.06431 8.88887 5.68097 8.12156 5.68097 7.51014C5.68097 7.15301 5.81578 6.91342 6.11925 6.73262C6.21189 6.67703 6.27003 6.57928 6.2745 6.47195C6.41569 3.21745 8.73358 0.655506 11.5766 0.638895C11.5798 0.638895 11.6418 0.643367 11.645 0.643367C14.5021 0.682978 16.8053 3.29987 16.8877 6.60037C16.8903 6.69173 16.9312 6.77734 17.0014 6.83612C17.2014 7.00542 17.2947 7.22009 17.2947 7.51142C17.2947 8.02317 17.0219 8.65248 16.5274 9.28242C16.5038 9.31245 16.4859 9.34695 16.4737 9.38337C15.9626 11.0036 15.0452 12.4341 13.9578 13.3093C13.8658 13.3835 13.8223 13.5023 13.8441 13.6179C14.0217 14.545 14.6152 15.8157 16.436 16.6073C16.6513 16.7006 16.9855 16.7734 17.4091 16.8648C18.9916 17.2072 21.6398 17.7816 22.2895 20.2074C22.3279 20.3499 22.4569 20.4438 22.5975 20.4438C22.6249 20.4438 22.6524 20.44 22.6805 20.433C22.8511 20.387 22.9521 20.2119 22.9067 20.0413C22.156 17.2385 19.1558 16.5888 17.5445 16.2399C17.1708 16.1588 16.8481 16.0891 16.6909 16.0201C15.5026 15.5039 14.7704 14.7175 14.5117 13.6786C15.6151 12.7311 16.5383 11.2694 17.066 9.62998C17.6263 8.90164 17.9342 8.15159 17.9342 7.51078C17.9342 7.08337 17.7962 6.72687 17.5228 6.44831C17.3707 2.86798 14.8158 0.0485615 11.645 0.00320039L11.5498 0.00192261C8.4365 0.0185337 5.87072 2.76384 5.64647 6.2822C5.24653 6.57609 5.04336 6.98817 5.04336 7.51142C5.04336 8.26723 5.47078 9.17126 6.21892 10.0005C6.73578 11.4208 7.53694 12.6685 8.49081 13.5419C8.23333 14.5846 7.50053 15.3736 6.30964 15.8905C6.15567 15.9575 5.849 16.031 5.49378 16.1153C3.87036 16.5012 0.849694 17.22 0.09325 20.0426C0.0478889 20.2132 0.148833 20.3876 0.319417 20.4336V20.4336Z" fill="#F7A5AF"/>
</g>
<defs>
<clipPath id="clip0_50_2">
<rect width="23" height="20.4444" fill="white"/>
</clipPath>
</defs>
</svg>
